<?xml version="1.0" standalone="no"?>
<!DOCTYPE svg PUBLIC "-//W3C//DTD SVG 20010904//EN"
 "http://www.w3.org/TR/2001/REC-SVG-20010904/DTD/svg10.dtd">
<svg version="1.0" xmlns="http://www.w3.org/2000/svg"
 width="700.000000pt" height="700.000000pt" viewBox="0 0 700.000000 700.000000"
 preserveAspectRatio="xMidYMid meet">
<metadata>
Created by potrace 1.11, written by Peter Selinger 2001-2013
</metadata>
<g transform="translate(0.000000,700.000000) scale(0.100000,-0.100000)"
fill="#000000" stroke="none">
<path d="M2464 6467 c4 -14 1 -17 -17 -15 -12 2 -27 7 -34 11 -7 4 -16 1 -21
-8 -6 -13 -14 -14 -35 -6 -21 8 -25 7 -21 -4 4 -10 0 -13 -16 -10 -13 2 -25 7
-28 10 -3 2 -11 0 -19 -6 -7 -6 -23 -9 -35 -6 -21 5 -21 5 -6 -7 15 -11 13
-13 -20 -14 -32 0 -64 -5 -82 -12 -3 -1 -8 -2 -12 -1 -5 0 -8 -4 -8 -10 0 -8
-6 -7 -17 2 -15 12 -16 12 -10 -3 4 -11 2 -15 -7 -12 -7 3 -19 -2 -26 -11 -10
-12 -16 -13 -28 -3 -10 8 -13 9 -9 2 4 -7 0 -14 -8 -18 -8 -3 -15 -1 -15 5 0
5 -6 4 -14 -3 -8 -7 -11 -17 -8 -23 3 -5 -2 -4 -11 4 -10 8 -20 11 -24 7 -3
-3 -1 -6 6 -6 7 0 9 -5 6 -10 -4 -6 -11 -8 -16 -4 -6 3 -17 -2 -25 -12 -9 -11
-13 -13 -9 -7 4 9 1 11 -9 7 -9 -3 -13 -10 -10 -15 3 -5 -3 -6 -12 -2 -13 5
-16 2 -12 -9 5 -11 0 -14 -17 -13 -16 2 -22 -2 -21 -14 1 -9 -6 -15 -16 -15
-10 1 -18 -2 -18 -7 0 -5 -7 -9 -15 -9 -8 0 -15 -7 -15 -15 0 -18 -16 -20 -23
-2 -4 9 -6 9 -6 -1 -1 -7 -6 -10 -13 -6 -7 4 -8 3 -4 -5 9 -14 -20 -45 -34
-36 -6 4 -10 3 -9 -2 4 -22 -3 -33 -19 -33 -19 0 -46 -36 -37 -50 3 -6 -1 -7
-9 -4 -9 4 -18 -1 -22 -10 -3 -9 -12 -16 -20 -16 -8 0 -15 -4 -15 -10 -1 -5
-2 -16 -3 -22 -1 -7 -9 -12 -18 -12 -11 1 -15 -5 -13 -17 3 -13 -1 -16 -12
-12 -12 5 -15 2 -10 -10 3 -9 1 -19 -5 -23 -7 -5 -8 -2 -4 7 4 8 0 5 -9 -6
-11 -14 -12 -21 -4 -24 7 -2 -2 -10 -20 -17 -17 -7 -31 -17 -30 -21 4 -21 -2
-33 -13 -27 -6 4 -8 3 -5 -3 4 -6 0 -16 -9 -23 -8 -7 -13 -19 -10 -26 3 -7 -2
-15 -11 -18 -9 -4 -13 -13 -9 -22 4 -10 2 -13 -6 -8 -8 5 -9 2 -5 -10 4 -10 3
-15 -3 -11 -6 3 -10 -1 -10 -10 0 -10 -5 -13 -12 -9 -8 5 -7 0 2 -11 8 -10 10
-16 5 -13 -6 4 -17 3 -25 -3 -13 -7 -13 -9 0 -9 11 -1 10 -4 -5 -16 -11 -8
-20 -18 -20 -22 0 -4 -4 -6 -8 -4 -5 1 -6 -2 -3 -7 7 -11 -13 -51 -37 -75 -9
-10 -17 -26 -17 -37 0 -13 -4 -18 -12 -13 -7 5 -8 3 -4 -5 5 -7 0 -19 -10 -27
-11 -9 -14 -13 -7 -10 6 4 15 2 18 -4 4 -6 3 -10 -2 -9 -19 3 -33 -2 -33 -12
0 -5 6 -7 13 -4 6 4 4 0 -5 -8 -10 -8 -18 -22 -18 -32 0 -11 -5 -15 -14 -12
-10 4 -13 0 -11 -14 2 -11 -2 -22 -10 -25 -8 -3 -11 -13 -8 -21 4 -9 2 -14 -3
-11 -5 3 -18 -6 -28 -21 l-20 -26 25 20 24 20 -15 -20 c-8 -11 -22 -26 -30
-33 -13 -12 -13 -13 0 -7 8 4 4 -3 -10 -15 -14 -12 -19 -19 -13 -15 9 4 11 1
7 -9 -3 -9 -10 -13 -15 -10 -8 5 -11 -2 -8 -22 0 -3 -8 -12 -18 -21 -10 -8
-12 -11 -5 -8 11 6 11 3 1 -13 -7 -12 -17 -18 -22 -15 -5 3 -6 -4 -3 -15 4
-12 2 -23 -5 -28 -8 -4 -9 -3 -5 4 4 7 5 12 2 12 -3 0 -13 -14 -22 -31 -11
-23 -12 -29 -2 -24 8 4 7 1 -2 -7 -24 -22 -56 -62 -42 -54 6 4 12 2 12 -3 0
-6 -10 -11 -22 -11 -17 0 -19 -3 -9 -9 11 -7 11 -10 0 -17 -8 -5 -14 -16 -14
-24 0 -8 -6 -14 -14 -12 -8 2 -11 -3 -8 -12 4 -9 -1 -20 -11 -25 -14 -8 -14
-10 -2 -11 13 0 13 -2 0 -9 -8 -6 -17 -8 -21 -5 -4 2 -5 -5 -2 -16 3 -11 1
-20 -5 -20 -5 0 -12 -9 -15 -21 -4 -14 -10 -18 -19 -13 -11 6 -11 5 0 -8 10
-13 10 -17 -3 -22 -9 -3 -13 -10 -10 -16 3 -5 1 -10 -5 -10 -6 0 -8 -5 -4 -12
5 -9 2 -8 -9 1 -15 12 -17 12 -11 -3 4 -9 1 -16 -6 -16 -10 0 -10 -3 -1 -14 9
-11 9 -16 0 -22 -8 -5 -10 -3 -4 7 5 10 5 11 -3 4 -6 -5 -12 -17 -14 -25 -4
-21 -22 -39 -32 -33 -4 3 -5 -4 -1 -16 4 -14 1 -23 -9 -27 -9 -3 -13 -10 -10
-15 3 -5 0 -9 -6 -9 -7 0 -9 -7 -6 -16 3 -8 2 -13 -2 -11 -4 3 -13 -1 -20 -9
-7 -8 -9 -14 -5 -14 4 0 0 -7 -10 -14 -10 -8 -19 -18 -20 -23 -1 -4 -6 -7 -10
-5 -5 1 -6 -2 -2 -8 4 -6 1 -17 -5 -25 -6 -8 -8 -20 -4 -27 4 -7 4 -10 0 -6
-9 8 -56 -31 -56 -46 0 -6 5 -4 10 4 6 9 10 10 10 3 0 -6 -5 -15 -10 -18 -6
-4 -7 -12 -3 -18 5 -9 2 -8 -8 0 -13 11 -15 9 -15 -10 1 -15 -4 -21 -14 -19
-8 2 -12 0 -7 -4 4 -4 -1 -16 -10 -27 -10 -11 -13 -17 -6 -14 6 4 15 2 19 -4
4 -7 3 -9 -3 -6 -13 8 -35 -17 -25 -29 4 -4 -2 -2 -12 6 -18 14 -19 14 -8 -6
9 -16 7 -22 -9 -32 -10 -7 -19 -19 -19 -28 0 -8 -4 -13 -8 -10 -5 3 -9 -1 -9
-9 0 -8 3 -12 7 -10 4 2 7 -2 7 -9 0 -8 -6 -12 -14 -9 -8 3 -13 -2 -13 -15 0
-11 -5 -22 -10 -24 -6 -2 -12 -13 -13 -26 0 -12 -5 -22 -9 -22 -4 0 -5 -7 -2
-15 4 -8 1 -15 -6 -15 -7 0 -10 -8 -7 -20 3 -11 0 -18 -7 -17 -6 1 -10 -7 -8
-19 2 -13 -4 -24 -13 -28 -12 -4 -14 -10 -5 -25 7 -14 6 -23 -3 -33 -8 -7 -12
-24 -10 -37 2 -16 -1 -22 -9 -18 -8 3 -14 -5 -15 -21 -1 -18 1 -21 8 -11 6 10
9 11 9 1 0 -7 -7 -15 -16 -19 -13 -5 -13 -7 -2 -14 10 -7 11 -9 0 -9 -8 0 -10
-5 -5 -12 12 -21 12 -39 -1 -44 -13 -5 -14 -43 -1 -64 5 -8 4 -11 -2 -7 -6 4
-13 0 -17 -8 -3 -10 1 -15 12 -16 14 0 14 -2 -3 -9 -12 -5 -15 -9 -6 -9 12 -1
12 -4 3 -13 -14 -14 -16 -32 -4 -24 5 3 9 -1 9 -9 0 -8 -3 -15 -7 -15 -3 0 -6
-9 -6 -20 0 -13 5 -19 14 -15 8 3 10 0 6 -7 -11 -17 -13 -69 -3 -62 5 3 6 -1
4 -8 -10 -26 -11 -87 -2 -85 5 1 12 -4 15 -12 3 -9 0 -11 -8 -6 -7 4 -4 -4 5
-19 12 -18 14 -26 5 -26 -9 0 -9 -4 -3 -12 6 -7 9 -23 8 -35 -1 -12 2 -20 6
-18 11 7 18 -49 8 -61 -7 -8 -4 -11 8 -10 13 1 17 -5 15 -23 -2 -14 0 -21 7
-17 7 5 9 -4 7 -24 -2 -20 1 -33 10 -37 8 -3 14 -12 14 -20 0 -9 10 -25 22
-36 17 -14 18 -18 6 -14 -10 3 -20 1 -24 -6 -4 -7 -4 -9 1 -5 10 10 35 -17 35
-37 0 -9 9 -19 20 -22 11 -3 20 -10 20 -15 0 -5 -5 -6 -10 -3 -19 12 -10 -7
12 -27 13 -11 17 -17 10 -13 -10 5 -10 1 -1 -19 7 -14 16 -23 20 -20 5 3 9 -2
9 -10 0 -9 5 -16 11 -16 5 0 8 -4 4 -9 -3 -6 3 -14 12 -20 11 -6 13 -11 5 -11
-7 0 0 -12 15 -26 15 -15 20 -21 10 -14 -26 19 -20 4 10 -26 16 -15 22 -23 16
-20 -7 4 -13 2 -13 -3 0 -6 7 -11 16 -11 8 0 13 -4 9 -9 -3 -5 -1 -12 5 -16 6
-4 8 -11 5 -16 -3 -5 2 -6 11 -2 12 4 15 3 10 -5 -6 -11 18 -60 37 -73 4 -3 5
-13 1 -23 -4 -11 -2 -16 7 -14 8 2 13 -3 12 -9 -2 -7 4 -13 13 -13 8 0 13 -4
9 -9 -5 -9 32 -81 42 -81 2 0 1 5 -3 12 -5 7 -3 8 5 3 9 -5 9 -11 3 -17 -7 -7
-2 -18 14 -35 13 -13 22 -28 19 -33 -3 -5 4 -14 15 -20 18 -10 19 -14 8 -28
-7 -9 -8 -13 -3 -10 11 7 28 -10 33 -32 2 -8 8 -16 13 -18 5 -2 9 -10 9 -18 0
-9 4 -12 10 -9 6 3 7 -1 4 -9 -4 -10 -1 -16 7 -16 11 0 11 -3 -1 -10 -13 -9
-13 -10 0 -11 8 -1 18 -1 21 -1 4 1 4 -8 1 -20 -4 -16 -2 -19 8 -13 10 6 12 4
7 -8 -4 -11 -1 -17 8 -17 8 0 15 -9 15 -21 0 -13 4 -18 13 -13 7 5 6 0 -3 -11
-9 -11 -10 -16 -3 -11 8 4 13 1 13 -9 0 -10 5 -13 12 -9 9 5 9 2 -1 -9 -12
-15 -11 -17 9 -17 18 0 20 -3 11 -14 -10 -12 -8 -16 10 -21 15 -5 18 -10 9
-15 -8 -5 -8 -9 4 -13 9 -4 16 -13 16 -22 0 -8 5 -15 11 -15 5 0 7 -5 4 -10
-3 -6 -1 -10 5 -10 6 0 8 -5 5 -10 -3 -5 -1 -10 5 -10 7 0 9 -7 6 -15 -3 -9 1
-18 9 -21 8 -4 15 -10 15 -16 0 -5 -5 -6 -12 -2 -7 4 -8 3 -4 -5 4 -6 12 -9
17 -6 5 4 9 -1 9 -10 0 -10 5 -13 12 -9 6 4 8 3 4 -4 -3 -6 1 -17 9 -25 11
-12 12 -17 2 -20 -6 -3 -4 -6 7 -6 15 -1 16 -4 6 -16 -11 -13 -10 -14 5 -8 14
5 17 3 12 -10 -4 -11 -1 -17 7 -17 8 0 17 -7 20 -16 6 -15 4 -15 -11 -3 -17
13 -17 13 0 -7 9 -11 14 -24 10 -28 -4 -4 1 -4 11 0 16 6 17 4 7 -13 -9 -17
-8 -20 7 -19 12 1 16 -6 15 -22 -2 -13 1 -21 6 -18 11 7 23 -22 15 -36 -3 -5
2 -8 11 -6 11 2 19 -4 20 -15 2 -10 -1 -15 -8 -10 -7 3 -2 -5 10 -18 13 -14
24 -37 25 -51 1 -15 5 -25 9 -22 4 2 13 -4 20 -13 12 -14 12 -16 0 -8 -10 6
-12 4 -7 -4 5 -7 15 -10 23 -6 13 4 14 3 3 -10 -10 -12 -9 -16 3 -21 9 -3 18
-13 21 -21 6 -14 4 -14 -11 -2 -14 11 -13 9 2 -13 11 -15 23 -28 28 -28 4 0 7
-7 7 -15 0 -8 4 -15 8 -15 4 0 13 -14 19 -31 8 -21 17 -30 27 -26 10 4 13 1 9
-9 -3 -7 0 -14 6 -14 6 0 11 -5 11 -11 0 -5 -5 -7 -12 -3 -7 4 -8 3 -4 -4 4
-7 15 -12 24 -12 15 0 15 -2 2 -10 -13 -8 -13 -10 1 -10 19 0 49 -31 49 -51 0
-9 15 -28 32 -45 l33 -29 -30 35 -30 34 36 -29 c20 -17 34 -36 31 -42 -2 -7 3
-13 12 -13 14 0 20 -12 17 -32 0 -5 7 -8 16 -8 9 0 32 -17 51 -38 20 -20 33
-32 29 -26 -3 6 0 11 7 11 7 0 13 -10 12 -21 -1 -13 6 -22 19 -24 11 -3 26
-12 33 -21 10 -12 12 -12 7 -1 -4 9 0 7 9 -4 9 -11 20 -15 28 -10 10 6 11 5 1
-7 -10 -13 -10 -16 5 -16 9 0 21 5 25 11 6 7 7 5 4 -6 -7 -22 3 -30 20 -17 10
9 13 8 13 -4 0 -9 5 -19 12 -23 7 -4 8 -3 4 4 -4 7 -2 12 3 12 6 0 11 -4 11
-10 0 -5 7 -10 15 -10 8 0 15 -4 15 -10 0 -5 6 -9 13 -7 6 1 11 -4 9 -12 -3
-12 -1 -12 14 0 16 12 17 12 11 -4 -4 -10 -3 -16 1 -14 14 9 53 -13 46 -24 -4
-8 -3 -9 5 -5 6 4 9 12 6 17 -4 5 -2 9 3 9 6 0 12 -6 15 -13 2 -7 19 -14 37
-15 37 -3 52 -10 46 -21 -3 -4 8 -5 25 -3 19 3 29 0 29 -9 0 -8 6 -5 15 7 13
16 14 16 9 1 -5 -13 -2 -16 9 -11 9 3 24 1 35 -5 13 -7 22 -7 30 1 8 8 13 7
18 -5 3 -9 10 -17 16 -17 5 0 7 4 4 8 -3 5 1 9 9 9 8 0 12 -4 9 -9 -3 -4 2 -8
11 -8 10 0 13 5 9 13 -6 8 -3 8 9 -1 9 -8 21 -11 27 -7 5 3 10 -2 10 -11 0
-16 1 -16 14 2 14 18 15 18 22 1 5 -14 9 -15 15 -6 6 10 11 10 22 0 10 -8 17
-9 22 -1 9 15 28 13 19 -2 -4 -7 3 -4 16 7 13 11 20 14 15 6 -6 -10 -2 -12 14
-6 14 4 21 2 21 -7 0 -10 3 -9 10 2 9 13 11 13 20 0 8 -13 10 -12 10 3 0 9 5
17 11 17 5 0 8 -4 5 -9 -10 -16 23 -21 38 -6 20 20 27 19 19 -3 -6 -15 -5 -15
10 -3 12 9 17 10 17 2 0 -7 5 -9 10 -6 6 4 8 10 5 15 -3 4 4 6 15 3 11 -3 17
-10 13 -17 -4 -6 1 -5 11 3 15 13 19 13 27 0 8 -12 13 -6 10 13 0 4 6 5 14 2
8 -4 15 -10 15 -16 0 -5 5 -6 10 -3 6 4 8 10 6 14 -3 4 1 8 9 8 8 0 12 -4 9
-9 -3 -4 0 -8 6 -8 6 0 13 7 16 15 6 14 8 13 21 -2 8 -10 12 -12 8 -5 -3 6 -2
12 2 12 5 0 15 -6 22 -12 11 -11 13 -11 7 0 -9 16 6 16 23 0 11 -10 13 -10 7
-1 -4 7 -3 13 1 13 5 0 15 -6 22 -13 9 -7 11 -7 8 -1 -4 7 0 15 9 18 10 4 13
2 8 -6 -5 -7 -2 -9 8 -5 9 3 21 0 28 -6 10 -9 11 -9 6 1 -4 6 -3 12 3 12 5 0
12 -6 14 -12 4 -10 6 -9 6 1 1 11 4 11 16 1 12 -10 16 -9 21 4 3 9 10 13 15
10 5 -3 7 -11 3 -17 -3 -7 2 -3 10 7 16 20 16 20 17 0 0 -10 3 -13 6 -6 2 6 9
12 14 12 6 0 7 -5 3 -11 -4 -8 -1 -8 12 -2 29 14 140 9 160 -8 16 -13 16 -12
4 11 l-13 25 23 -20 c13 -11 20 -14 16 -7 -4 6 -2 12 3 12 6 0 11 -5 11 -12 0
-6 10 -3 22 8 12 10 18 14 14 7 -5 -9 3 -12 29 -11 19 1 38 -2 42 -5 3 -4 12
-2 19 4 8 7 14 6 20 -2 5 -8 3 -9 -6 -4 -9 6 -11 4 -5 -5 7 -11 10 -10 19 1
15 19 52 17 48 -1 -2 -11 1 -10 11 2 8 10 17 15 21 11 3 -4 31 -5 62 -4 34 2
61 -2 71 -11 14 -11 16 -11 10 4 -5 15 -2 16 18 8 18 -7 25 -6 25 3 0 8 4 7
10 -3 6 -9 10 -11 10 -3 0 7 7 10 15 7 8 -4 12 -11 8 -18 -3 -6 -1 -6 8 2 17
16 32 16 23 0 -6 -10 -5 -10 7 -1 12 10 18 10 29 0 10 -10 11 -9 5 2 -6 10 -4
13 7 8 9 -3 20 -1 26 5 8 8 13 7 18 -6 6 -15 7 -15 20 1 9 11 13 13 12 4 -2
-7 5 -15 15 -16 9 -2 15 1 11 6 -10 16 8 10 23 -8 8 -10 12 -13 9 -7 -3 7 3
14 14 17 11 3 20 1 20 -4 0 -6 8 -5 20 1 15 8 20 8 20 -2 0 -9 3 -9 10 2 9 13
10 13 10 0 0 -13 1 -13 10 0 5 8 10 10 10 4 0 -6 11 -12 25 -12 16 0 22 5 18
12 -4 6 0 5 9 -2 13 -10 17 -10 21 0 4 11 6 10 6 0 1 -8 6 -10 14 -5 17 11 38
13 32 3 -3 -4 2 -11 11 -14 8 -3 12 -2 9 3 -3 5 -1 12 5 16 5 3 10 2 10 -4 0
-5 8 -8 18 -6 9 1 16 9 14 16 -2 10 1 9 13 -2 13 -13 24 -15 48 -8 21 6 33 5
38 -2 4 -8 8 -7 12 2 5 12 7 12 15 0 8 -11 10 -11 15 0 4 12 7 11 16 -1 6 -8
11 -10 11 -4 0 7 7 15 16 18 8 3 12 2 9 -3 -3 -5 0 -13 6 -17 8 -4 9 -3 5 4
-4 7 -1 12 8 12 9 0 16 5 16 12 0 6 6 3 14 -8 13 -17 15 -17 21 -2 4 10 13 14
22 11 12 -5 14 -3 8 8 -8 12 -6 12 8 0 15 -12 17 -11 17 4 0 14 3 15 15 5 17
-14 35 -5 36 18 0 14 2 13 9 -3 5 -11 9 -15 9 -8 1 6 10 10 21 8 11 -2 20 1
20 6 0 6 6 9 13 6 6 -2 18 3 25 12 12 14 13 14 7 -3 -5 -19 -5 -19 12 -4 10 9
25 18 33 20 8 2 24 12 34 23 16 17 18 17 13 3 -4 -10 -2 -18 3 -18 6 0 10 5
10 11 0 5 5 7 10 4 6 -3 10 1 10 9 0 8 5 18 12 22 8 5 9 1 5 -12 -7 -18 -6
-18 6 -2 11 14 16 15 26 5 10 -9 11 -8 5 7 -5 13 -4 17 4 12 7 -4 12 -2 12 4
0 6 5 8 12 4 7 -5 9 -2 5 9 -4 11 -2 14 8 11 8 -3 19 3 26 14 11 17 17 19 33
10 20 -11 20 -10 6 7 -8 10 -10 16 -3 12 7 -5 20 0 31 11 10 10 24 16 32 14 8
-3 10 0 5 8 -6 10 -3 12 11 6 10 -4 15 -4 11 0 -4 4 2 14 13 21 12 8 17 20 13
26 -4 7 1 6 10 -2 16 -12 17 -12 11 5 -4 10 -4 16 -1 13 8 -7 107 85 107 100
0 5 5 13 12 17 7 5 8 3 3 -6 -5 -9 -4 -11 3 -6 7 4 12 12 12 17 0 18 29 41 42
33 9 -6 9 -3 -1 9 -12 15 -11 17 3 17 9 0 15 6 13 13 -1 6 3 11 10 10 7 -2 10
4 7 12 -4 9 3 19 19 26 15 7 23 17 20 25 -3 8 2 17 11 20 9 3 13 10 10 15 -3
5 2 12 11 15 12 5 13 9 4 21 -7 8 -8 13 -3 12 29 -5 36 1 23 19 -7 9 -9 14 -5
10 5 -4 17 2 27 14 23 26 24 35 2 17 -15 -13 -15 -12 -3 8 8 12 18 19 22 17 8
-5 12 10 9 34 -1 7 4 11 11 10 7 -2 12 3 11 10 -2 6 2 12 7 12 6 0 10 10 10
22 0 12 3 18 6 15 4 -4 16 13 27 36 12 23 24 44 29 47 4 3 9 17 12 30 2 14 8
24 14 23 5 -1 8 7 5 17 -3 11 0 20 6 20 6 0 10 6 8 13 -1 6 4 11 12 9 12 -3
12 0 2 12 -10 12 -8 16 10 21 17 6 19 9 8 16 -10 6 -11 9 -1 9 6 0 12 7 12 15
0 7 8 19 18 24 9 6 14 11 9 11 -4 0 -1 10 8 23 8 13 13 26 10 29 -3 3 3 11 12
19 17 13 17 13 3 -6 -14 -19 -14 -19 3 -6 13 10 15 17 6 27 -9 11 -8 14 5 14
9 0 16 7 16 16 0 8 4 13 9 10 4 -3 7 6 5 20 -2 22 0 23 14 12 11 -9 14 -9 9
-1 -8 13 9 49 33 71 9 8 10 11 2 7 -11 -6 -11 -3 -1 13 7 12 16 19 20 16 4 -2
11 1 15 7 4 8 3 9 -4 5 -7 -4 -12 -3 -12 3 0 5 8 14 17 20 10 5 15 13 11 17
-11 10 11 46 24 38 7 -4 8 -3 4 4 -4 7 -2 12 4 12 6 0 8 5 5 10 -3 6 1 13 9
16 9 3 16 16 16 29 0 12 15 37 33 55 17 18 25 29 17 25 -12 -7 -13 -6 -3 7 7
8 9 19 5 23 -4 5 -2 5 5 2 7 -4 17 5 25 23 7 17 18 28 24 26 7 -3 9 5 6 21 -3
18 -1 24 7 19 7 -5 11 1 11 14 0 11 6 23 14 26 9 3 12 12 9 22 -5 12 -2 14 11
9 9 -4 15 -3 11 2 -7 13 5 42 16 35 5 -3 6 3 2 12 -4 10 -2 15 4 11 5 -3 10 0
11 8 1 8 3 21 4 29 1 8 8 12 15 9 8 -3 13 -2 12 3 -4 16 13 44 22 38 5 -3 6 2
3 10 -3 9 -1 16 5 16 6 0 10 3 10 8 -3 19 2 33 10 27 5 -3 12 -1 16 5 3 5 0
10 -7 10 -9 1 -7 5 4 14 10 7 15 16 11 19 -3 4 -1 7 5 7 7 0 12 7 12 15 0 7 8
19 18 24 9 6 13 11 8 11 -6 0 -1 7 10 16 10 8 13 13 7 9 -7 -3 -13 -2 -13 3 0
6 7 12 15 16 8 3 15 10 15 16 0 6 9 21 20 33 11 12 18 27 16 34 -3 7 -1 13 5
13 6 0 7 5 3 12 -5 7 -2 9 9 5 11 -4 14 -2 10 9 -3 8 1 14 8 14 11 0 11 3 -1
10 -10 6 -11 10 -2 10 6 0 12 7 12 15 0 9 7 18 15 21 11 5 13 10 5 19 -8 10
-8 15 1 21 8 5 10 3 4 -7 -6 -10 -5 -11 4 -3 7 6 13 21 14 33 1 11 5 21 10 21
4 0 5 5 2 10 -3 6 -2 10 4 10 6 0 7 7 4 17 -4 11 -3 14 5 9 8 -5 10 -2 6 8 -4
10 -1 16 7 16 11 0 11 3 -1 10 -12 8 -12 10 5 10 17 0 17 2 5 10 -12 8 -12 10
-1 10 10 0 11 3 2 14 -9 11 -9 16 0 22 8 5 9 3 4 -6 -5 -8 -4 -11 3 -6 6 3 9
18 6 31 -2 14 0 25 5 25 6 0 8 9 6 19 -2 11 3 22 11 25 9 4 12 11 8 18 -12 19
-12 48 -1 41 6 -4 8 0 4 10 -3 9 -2 19 3 22 6 4 10 12 9 18 0 9 -2 9 -6 0 -2
-7 -10 -13 -16 -13 -6 0 0 11 12 24 14 15 19 26 12 31 -6 3 -11 11 -11 16 0 6
6 7 13 3 9 -6 9 -4 -1 8 -10 13 -10 17 0 22 10 5 10 7 1 12 -7 3 -13 10 -13
15 0 6 4 8 8 5 4 -2 6 14 5 37 -2 23 -6 78 -9 122 -3 46 -10 82 -17 87 -9 6
-8 8 3 8 10 0 11 3 4 8 -6 4 -11 23 -10 44 0 20 -2 34 -6 32 -4 -2 -9 0 -13 6
-3 5 -1 10 5 10 7 0 5 7 -4 16 -19 19 -21 28 -3 18 9 -6 9 -5 0 8 -7 8 -10 18
-6 21 3 4 1 7 -7 7 -10 0 -10 4 1 17 10 11 10 14 2 9 -9 -5 -13 0 -13 13 0 12
-5 21 -12 21 -6 0 -8 3 -5 7 4 3 1 13 -6 21 -9 13 -9 14 0 8 9 -5 11 -2 7 8
-3 9 -10 14 -14 11 -4 -3 -11 2 -14 11 -4 10 -2 13 7 9 6 -4 5 -1 -3 7 -8 7
-15 19 -16 26 -2 29 -5 33 -16 26 -6 -4 -8 -3 -5 4 10 14 -3 43 -15 36 -6 -4
-4 4 2 17 7 13 9 21 5 17 -10 -9 -47 31 -39 43 3 5 0 9 -5 9 -6 0 -11 7 -11
16 0 8 -5 12 -10 9 -6 -4 -10 -3 -9 2 4 22 -2 43 -11 38 -6 -3 -10 3 -10 14 0
10 -3 21 -7 23 -16 6 -44 68 -37 80 4 6 3 8 -3 5 -5 -4 -16 6 -24 21 -8 15
-23 35 -34 45 -11 10 -14 16 -7 12 6 -3 12 -1 12 4 0 6 -7 11 -16 11 -8 0 -12
5 -9 10 3 6 1 10 -6 10 -6 0 -9 8 -7 18 3 12 -2 24 -15 31 -16 11 -17 15 -6
22 11 7 11 9 -3 9 -16 0 -23 11 -19 33 0 4 -4 7 -10 7 -5 0 -7 5 -4 10 3 6 -1
10 -11 10 -14 0 -14 3 -4 15 11 13 10 14 -3 9 -12 -4 -15 -1 -12 16 3 16 0 20
-10 16 -9 -3 -12 0 -9 9 3 7 -4 19 -16 25 -12 6 -19 14 -17 17 3 3 -3 22 -14
44 -12 22 -17 44 -13 51 6 10 5 10 -8 0 -13 -10 -18 -10 -24 -1 -4 8 -3 9 4 5
7 -4 12 -2 12 3 0 6 -5 11 -11 11 -5 0 -7 5 -4 10 3 6 2 10 -3 10 -10 0 -38
60 -34 72 1 5 -4 7 -11 5 -6 -1 -12 7 -12 18 0 11 -9 25 -19 30 -23 12 -30 46
-13 58 8 6 6 7 -5 4 -9 -3 -22 2 -30 11 -8 10 -8 13 -1 9 6 -4 15 -3 18 3 4 6
3 10 -2 9 -4 -1 -14 -1 -22 0 -11 1 -11 4 0 18 10 11 10 14 2 9 -8 -4 -13 -2
-13 4 0 6 -5 8 -12 4 -8 -5 -7 0 2 11 8 10 10 16 3 12 -6 -4 -14 -3 -18 3 -3
5 0 10 7 10 10 0 9 3 -2 9 -8 6 -18 7 -24 4 -5 -3 -6 -1 -2 5 4 7 1 12 -6 12
-9 0 -9 3 2 10 13 8 12 10 -4 10 -15 0 -16 3 -7 14 9 11 9 16 0 22 -8 4 -9 3
-5 -4 4 -7 2 -12 -3 -12 -6 0 -11 11 -11 24 0 14 -5 28 -11 32 -8 4 -7 9 2 16
10 7 8 8 -7 3 -18 -5 -23 0 -28 30 -4 19 -12 35 -17 35 -6 0 -8 10 -4 23 4 14
3 18 -3 9 -7 -11 -11 -11 -19 0 -20 26 -27 41 -15 34 8 -5 10 -2 6 8 -3 9 -9
14 -13 12 -4 -3 -13 5 -21 17 -12 20 -12 21 4 8 14 -12 16 -12 10 3 -3 9 -10
16 -15 16 -5 0 -9 9 -9 20 0 11 -7 23 -15 26 -8 4 -12 10 -9 15 3 5 -2 9 -11
9 -9 0 -13 5 -10 10 3 6 1 10 -6 10 -9 0 -9 3 0 14 10 11 8 16 -9 21 -17 5
-19 9 -9 21 10 12 10 15 -2 12 -9 -2 -13 4 -11 16 2 11 -1 15 -7 11 -6 -3 -11
-1 -11 5 0 6 -7 18 -15 27 -8 8 -13 19 -10 24 4 5 1 9 -4 9 -6 0 -11 9 -11 21
0 13 -4 18 -12 13 -8 -5 -9 -2 -5 9 4 11 1 17 -8 17 -8 0 -15 9 -15 20 0 11
-5 20 -11 20 -5 0 -7 5 -3 12 5 8 2 9 -11 4 -14 -5 -15 -3 -7 6 11 15 -10 42
-24 30 -4 -4 -5 1 -1 10 3 10 0 19 -10 22 -8 4 -13 12 -10 20 3 7 0 19 -6 25
-14 14 -30 15 -22 1 3 -5 1 -10 -4 -10 -6 0 -11 9 -11 20 0 11 -6 20 -12 20
-9 0 -8 4 2 10 13 8 12 10 -2 10 -10 0 -18 4 -18 9 0 5 -9 11 -21 14 -12 3
-18 10 -14 17 9 15 -13 40 -36 40 -11 0 -19 7 -19 15 0 9 -7 18 -15 21 -8 4
-12 10 -9 15 3 5 -5 9 -18 10 -13 0 -18 3 -11 6 10 3 10 7 0 18 -9 9 -14 10
-19 1 -5 -7 -8 -4 -8 7 0 10 -4 15 -10 12 -5 -3 -10 -1 -10 5 0 6 -4 8 -10 5
-5 -3 -10 1 -10 9 0 9 -5 16 -11 16 -5 0 -7 6 -3 13 6 9 5 9 -7 0 -12 -10 -18
-9 -29 7 -7 10 -17 17 -22 14 -4 -3 -8 3 -8 13 0 15 -2 16 -10 3 -9 -13 -10
-13 -11 0 -1 8 -1 17 -1 20 1 5 -26 10 -65 13 -7 0 -13 4 -13 8 0 4 6 10 13
12 6 3 -3 4 -20 2 -24 -3 -33 1 -33 11 0 9 -7 14 -17 12 -10 -2 -17 2 -16 8 1
6 -9 10 -23 8 -22 -2 -23 0 -12 14 10 12 10 14 1 8 -7 -4 -19 -4 -25 1 -19 11
-39 13 -32 2 3 -5 10 -6 16 -3 7 5 8 2 4 -5 -6 -9 -12 -9 -24 2 -10 8 -27 18
-40 22 -12 3 -20 10 -18 14 3 4 -1 8 -9 8 -8 0 -12 -4 -9 -8 2 -4 0 -10 -6
-14 -5 -3 -10 1 -10 10 0 12 -6 15 -21 10 -13 -5 -19 -3 -15 3 8 13 -38 21
-57 10 -11 -6 -19 -3 -26 9 -6 11 -11 13 -11 5 0 -7 -5 -10 -10 -7 -6 4 -8 10
-6 14 7 11 -38 8 -46 -4 -5 -6 -8 -5 -8 3 0 6 -5 12 -11 12 -5 0 -7 -6 -3 -12
4 -7 -2 -5 -14 5 -12 12 -26 16 -34 11 -18 -12 -48 -12 -48 -1 0 5 -7 4 -15
-3 -14 -11 -19 -7 -16 12 0 4 -6 5 -14 2 -8 -4 -12 -10 -9 -15 3 -5 0 -9 -5
-9 -6 0 -11 6 -11 13 0 9 -3 8 -9 -2 -7 -11 -9 -11 -13 0 -4 12 -7 12 -21 0
-13 -10 -17 -10 -17 -1 0 9 -4 9 -17 -1 -11 -10 -14 -10 -9 -1 4 6 3 12 -3 12
-5 0 -13 -5 -16 -10 -9 -14 -27 -1 -18 13 3 7 -3 3 -15 -7 -15 -13 -22 -15
-22 -6 0 10 -4 9 -17 -1 -11 -10 -14 -10 -9 -1 9 15 -6 16 -22 0 -9 -9 -12 -9
-12 1 0 7 -5 9 -12 5 -18 -11 -118 -10 -118 1 0 5 -5 2 -11 -9 -9 -15 -13 -16
-20 -5 -7 11 -9 9 -9 -6 -1 -19 -1 -19 -11 -1 -9 14 -13 15 -19 5 -7 -10 -12
-10 -26 2 -16 13 -17 12 -11 -5 6 -16 5 -17 -8 -6 -12 10 -18 10 -32 -1 -11
-10 -14 -10 -9 -1 4 6 3 12 -1 12 -5 0 -15 -6 -22 -12 -10 -9 -12 -9 -7 -1 4
7 0 12 -11 11 -10 0 -28 3 -41 6 -12 3 -20 1 -17 -4 3 -5 1 -11 -5 -15 -5 -3
-10 -2 -10 3 0 6 -7 13 -16 16 -8 3 -12 2 -9 -3 3 -5 1 -12 -5 -16 -5 -3 -10
-1 -10 6 0 8 -5 7 -17 -2 -9 -8 -14 -9 -10 -3 8 13 -11 23 -31 17 -6 -3 -9
-10 -5 -16 3 -7 -4 -3 -16 8 -28 24 -24 24 -49 2 -15 -14 -22 -15 -28 -6 -5 8
-3 10 7 4 8 -5 11 -4 6 0 -9 11 -48 14 -42 4 3 -4 -2 -9 -10 -13 -8 -3 -17 -1
-20 5 -4 5 -21 9 -38 9 -18 -1 -49 0 -69 2 -21 2 -38 -1 -38 -6 0 -4 -8 -2
-17 5 -15 12 -16 12 -10 -6 7 -20 7 -20 -8 -1 -8 11 -15 15 -15 9 0 -7 -14 -8
-40 -3 -22 4 -40 3 -40 -2 0 -5 -10 -4 -22 3 -18 10 -20 9 -15 -4 4 -11 2 -14
-8 -10 -8 3 -12 10 -9 15 4 6 -1 6 -13 0 -12 -7 -25 -7 -34 -1 -18 11 -32 12
-25 1 6 -10 -45 -9 -62 2 -7 4 -12 2 -13 -6 0 -7 -4 -4 -9 7 -5 11 -9 14 -9 7
-1 -10 -6 -10 -23 -1 -20 11 -21 10 -11 -2 10 -12 8 -15 -7 -15 -10 0 -17 3
-14 7 2 4 -3 9 -11 12 -10 4 -12 1 -8 -11 5 -13 4 -15 -8 -6 -8 6 -26 9 -42 8
-19 -2 -25 1 -20 9 4 7 0 6 -10 -2 -14 -11 -17 -11 -17 0 0 12 -2 12 -9 0 -7
-11 -9 -11 -13 0 -3 8 -9 10 -19 4 -19 -13 -51 -17 -45 -7 3 5 -1 9 -9 9 -8 0
-12 -4 -9 -9 3 -4 0 -8 -5 -8 -6 0 -11 5 -11 11 0 6 -5 7 -12 2 -19 -11 -39
-13 -32 -2 3 5 1 9 -5 9 -5 0 -13 -5 -16 -10 -4 -7 -13 -6 -27 1 -15 8 -19 8
-14 0 4 -6 2 -11 -3 -11 -6 0 -11 6 -11 13 0 9 -2 9 -9 -1 -7 -11 -9 -10 -14
3 -6 14 -9 14 -34 -2 -21 -14 -25 -14 -18 -3 8 13 7 13 -8 1 -16 -13 -22 -8
-17 14 1 5 -7 3 -17 -5 -23 -19 -51 -19 -64 0 -9 12 -10 12 -5 -3z m1216 -23
c0 -8 -19 -13 -24 -6 -3 5 1 9 9 9 8 0 15 -2 15 -3z m-1350 -984 c0 -5 -5 -10
-11 -10 -5 0 -7 5 -4 10 3 6 8 10 11 10 2 0 4 -4 4 -10z m47 -14 c-4 7 0 14 8
17 9 4 12 1 9 -7 -3 -7 2 -13 10 -13 8 0 13 4 11 8 -3 4 2 9 10 13 8 3 14 2
14 -2 -3 -19 2 -25 11 -12 9 13 11 13 20 0 8 -13 10 -12 10 4 0 20 0 20 16 0
13 -16 15 -16 10 -2 -5 15 -3 16 14 5 16 -9 24 -9 40 1 17 10 21 10 26 -3 3
-8 10 -12 15 -9 5 3 6 11 2 17 -3 7 4 3 17 -8 13 -11 20 -14 16 -7 -11 18 5
15 19 -5 9 -13 14 -13 20 -3 5 9 4 11 -3 6 -7 -4 -12 -3 -12 2 0 21 40 20 56
-1 10 -14 14 -16 11 -6 -4 13 -1 15 15 11 14 -3 19 -1 14 6 -5 8 -2 10 8 6 9
-3 13 -11 9 -18 -4 -6 6 -3 21 8 16 10 26 14 22 8 -3 -5 4 -12 15 -15 16 -4
19 -2 14 11 -5 14 -3 13 14 -2 14 -13 21 -14 27 -5 5 8 3 10 -6 4 -9 -6 -11
-4 -5 4 5 9 10 10 18 2 7 -7 17 -7 31 1 18 10 19 9 9 -3 -10 -12 -8 -15 8 -15
10 0 19 3 19 6 0 3 9 6 20 7 11 1 18 -2 16 -6 -3 -4 1 -8 9 -8 8 0 12 4 9 9
-6 9 10 11 19 2 3 -4 27 -7 52 -8 37 -1 44 1 40 14 -5 11 -3 12 6 3 8 -8 19
-9 36 -2 17 6 22 6 17 -2 -4 -8 1 -9 16 -4 15 5 20 4 16 -4 -4 -6 -2 -11 3
-11 6 0 11 4 11 9 0 5 7 12 16 15 8 3 13 2 10 -3 -3 -5 1 -12 10 -15 9 -4 13
-2 8 5 -4 8 1 9 16 4 15 -5 25 -2 31 6 7 12 9 12 9 0 0 -10 3 -11 14 -2 11 10
17 8 25 -6 10 -17 10 -17 11 2 l1 20 9 -20 c5 -11 9 -14 9 -7 1 7 6 10 11 7 6
-3 16 -3 23 2 19 12 38 12 31 1 -4 -6 -1 -8 7 -6 8 3 22 1 32 -4 11 -6 17 -5
17 2 0 6 4 9 9 6 5 -4 22 -1 37 4 22 9 25 8 16 -3 -9 -11 -8 -14 3 -14 8 0 15
4 15 9 0 5 5 6 10 3 6 -3 10 0 10 7 0 10 2 10 9 -1 6 -10 10 -10 16 -1 5 8 12
7 26 -6 13 -12 19 -13 19 -4 0 10 3 10 15 0 13 -11 14 -10 9 5 -5 13 -3 16 7
13 8 -3 13 -11 11 -18 -2 -9 6 -7 24 5 14 9 24 13 20 7 -3 -5 1 -13 10 -16 8
-3 13 -2 10 3 -3 5 1 11 9 15 8 3 15 1 15 -4 0 -5 6 -7 14 -4 8 3 17 1 21 -5
4 -8 15 -6 35 4 34 18 44 19 35 5 -3 -5 -2 -10 4 -10 5 0 12 4 16 10 3 5 12 7
20 4 8 -4 13 -10 10 -14 -3 -5 4 -6 15 -3 11 3 18 9 15 12 -2 4 3 8 11 8 9 0
13 -6 9 -16 -4 -12 -2 -12 9 2 10 12 15 14 18 6 3 -8 9 -9 18 -4 23 15 74 12
94 -5 11 -8 16 -10 13 -3 -4 6 -3 14 3 18 5 3 10 1 10 -6 0 -8 5 -7 17 2 11
10 14 10 9 2 -10 -17 26 -17 42 -1 9 9 12 8 12 -7 0 -18 0 -18 15 1 8 10 15
14 15 8 0 -6 11 -10 25 -8 14 2 36 6 50 8 16 2 29 -3 35 -13 8 -14 10 -13 10
4 1 12 4 15 7 7 4 -10 8 -10 21 0 14 11 15 10 8 -7 -6 -16 -5 -17 5 -8 9 9 16
10 26 1 11 -8 12 -7 7 7 -6 15 -4 16 13 7 11 -6 23 -8 27 -4 11 10 66 9 66 -2
0 -5 3 -6 7 -2 11 11 83 -66 83 -90 0 -12 7 -25 16 -28 9 -4 14 -13 10 -22 -3
-8 -2 -12 4 -9 6 3 10 1 10 -5 0 -6 6 -8 13 -4 9 5 9 4 0 -6 -8 -9 -7 -16 5
-31 8 -10 19 -16 23 -13 4 2 5 -5 2 -16 -4 -15 0 -20 13 -20 11 0 15 -4 9 -8
-16 -12 -16 -32 0 -26 14 6 19 -7 18 -44 -1 -10 2 -10 13 -1 8 7 17 9 21 5 3
-3 1 -6 -5 -6 -7 0 -12 -7 -12 -16 0 -8 5 -12 10 -9 9 6 14 -8 11 -27 0 -5 5
-8 13 -8 8 0 17 -7 20 -16 5 -14 4 -15 -9 -4 -21 17 -19 8 4 -18 10 -12 22
-18 26 -14 5 4 5 2 1 -5 -7 -14 13 -63 27 -63 5 0 6 -7 3 -16 -3 -8 -2 -12 4
-9 6 3 10 -1 10 -10 0 -9 4 -14 9 -11 4 3 13 -6 20 -21 11 -25 11 -25 -5 -12
-15 12 -15 10 1 -13 11 -14 22 -24 24 -22 5 5 30 -28 31 -40 0 -6 -7 -1 -16
10 -15 18 -15 18 -5 -2 6 -12 7 -25 3 -29 -4 -3 -2 -6 3 -5 21 5 36 0 30 -10
-3 -5 -1 -10 5 -10 7 0 9 -9 6 -22 -3 -13 -3 -17 0 -11 4 10 9 10 20 -1 16
-17 19 -30 4 -21 -6 3 -7 -1 -4 -9 3 -9 12 -16 20 -16 8 0 14 -9 14 -20 0 -11
5 -20 11 -20 5 0 7 -4 4 -10 -3 -5 -1 -10 5 -10 7 0 9 -7 6 -16 -3 -8 -2 -13
2 -11 4 3 15 -4 25 -13 14 -13 15 -20 6 -26 -8 -5 -10 -3 -4 6 6 9 4 11 -4 5
-9 -5 -7 -13 8 -29 12 -12 18 -26 14 -30 -4 -4 0 -4 9 -1 9 4 18 0 22 -10 3
-9 2 -13 -3 -10 -5 3 -13 0 -17 -6 -5 -8 -3 -9 5 -5 8 5 14 0 18 -13 3 -12 12
-21 20 -21 8 0 11 -4 8 -10 -3 -5 -2 -10 4 -10 5 0 8 -9 6 -21 -3 -15 0 -19
10 -15 9 3 12 0 9 -9 -3 -8 4 -20 15 -27 12 -7 21 -16 21 -21 0 -4 -4 -5 -10
-2 -21 13 -9 -8 21 -36 17 -16 26 -29 19 -29 -6 0 -8 -5 -5 -10 4 -6 11 -8 16
-5 5 3 6 -1 3 -9 -4 -11 0 -16 11 -16 12 0 16 -6 12 -20 -3 -13 -1 -18 6 -13
6 4 8 0 4 -11 -4 -10 -1 -19 8 -22 8 -4 15 -12 15 -20 0 -8 5 -14 11 -14 5 0
7 -4 4 -10 -3 -5 2 -10 12 -11 11 0 13 -3 5 -6 -10 -4 -8 -8 5 -18 10 -7 19
-18 19 -24 1 -6 2 -15 3 -21 0 -5 9 -10 19 -10 15 -1 15 -2 -3 -17 -16 -13
-17 -15 -2 -10 11 4 17 1 17 -9 0 -8 4 -12 10 -9 6 4 7 -1 3 -11 -4 -11 -3
-15 5 -10 6 3 13 2 17 -4 3 -5 1 -10 -5 -10 -7 0 -5 -7 4 -16 9 -8 16 -20 16
-26 0 -6 8 -16 17 -23 9 -7 18 -23 20 -35 2 -13 13 -30 24 -38 17 -12 18 -16
7 -30 -10 -12 -10 -14 0 -8 7 4 12 1 12 -9 0 -10 5 -13 12 -9 8 5 9 2 5 -9 -4
-12 -1 -17 11 -17 12 0 13 -3 5 -8 -9 -6 -6 -13 11 -25 15 -12 22 -26 21 -42
-3 -19 1 -23 17 -20 16 4 18 2 8 -10 -10 -12 -9 -15 3 -15 10 0 14 -8 13 -25
-2 -13 0 -24 3 -23 18 2 31 -3 31 -13 0 -5 -5 -7 -11 -4 -6 4 -5 -2 3 -14 7
-12 16 -21 21 -21 4 0 6 -4 2 -9 -3 -6 3 -14 12 -20 16 -9 15 -11 -7 -11 -14
-1 -20 -4 -13 -6 8 -4 5 -12 -8 -25 -11 -11 -18 -27 -15 -35 3 -8 0 -13 -7
-11 -7 1 -11 -4 -10 -10 2 -7 -4 -13 -13 -13 -14 0 -14 -3 -4 -16 11 -12 11
-15 -1 -12 -9 2 -14 -6 -13 -24 0 -23 -2 -25 -15 -15 -11 9 -13 9 -8 0 4 -6 3
-14 -3 -18 -5 -3 -10 -15 -10 -26 0 -11 -4 -17 -10 -14 -5 3 -10 -1 -10 -9 0
-9 -7 -24 -15 -33 -8 -10 -14 -21 -13 -25 2 -4 -5 -13 -14 -20 -10 -7 -19 -23
-21 -35 -2 -12 -7 -26 -12 -30 -4 -5 -5 -2 0 6 6 10 4 12 -4 7 -7 -4 -11 -16
-9 -26 2 -11 -5 -25 -15 -32 -10 -8 -20 -22 -21 -33 -2 -11 -9 -19 -15 -18 -6
2 -10 0 -10 -5 4 -21 -2 -32 -13 -26 -10 6 -10 4 0 -8 10 -13 10 -18 1 -24 -8
-5 -10 -3 -4 7 5 10 5 11 -3 4 -5 -5 -12 -19 -14 -30 -2 -11 -10 -19 -18 -17
-11 3 -11 0 1 -14 8 -10 9 -15 3 -11 -7 4 -18 -1 -25 -10 -10 -12 -10 -14 -1
-9 6 4 12 2 12 -3 0 -10 -14 -15 -33 -12 -4 1 -3 -8 4 -20 9 -17 8 -20 -2 -14
-9 6 -11 3 -6 -8 4 -11 2 -14 -7 -11 -7 3 -16 -2 -20 -11 -3 -10 -2 -14 5 -9
7 4 7 -1 -1 -15 -6 -12 -17 -24 -25 -27 -8 -3 -12 -11 -9 -19 3 -7 -2 -15 -10
-18 -9 -4 -13 -13 -10 -21 3 -8 0 -17 -7 -22 -8 -5 -10 -3 -4 6 5 8 4 11 -3 6
-6 -4 -8 -14 -5 -23 5 -13 2 -15 -13 -9 -15 6 -17 5 -6 -5 6 -7 12 -17 12 -23
0 -5 -3 -7 -6 -3 -9 8 -32 -16 -28 -28 3 -6 -5 -21 -17 -33 -11 -13 -22 -31
-24 -40 -1 -9 -8 -16 -13 -15 -6 2 -9 -4 -6 -12 4 -8 -1 -17 -10 -21 -9 -3
-13 -10 -10 -16 3 -5 -2 -18 -11 -28 -9 -10 -18 -26 -19 -35 -1 -9 -7 -20 -12
-23 -5 -4 -15 -19 -23 -34 -8 -15 -19 -25 -24 -21 -6 3 -7 1 -3 -6 4 -6 0 -18
-8 -27 -9 -8 -16 -24 -16 -35 0 -11 -7 -22 -15 -25 -8 -4 -12 -10 -9 -15 3 -5
-2 -12 -11 -15 -13 -5 -13 -9 -3 -22 10 -12 10 -14 1 -8 -8 4 -13 2 -13 -4 0
-6 -5 -8 -12 -4 -7 4 -8 3 -4 -5 8 -13 -12 -44 -23 -36 -4 2 -8 -2 -8 -10 0
-8 5 -12 11 -9 6 3 0 -4 -14 -16 -14 -12 -18 -19 -10 -15 13 6 13 5 0 -7 -8
-7 -16 -20 -18 -28 -2 -8 -9 -18 -15 -22 -7 -4 -8 -8 -3 -8 5 0 3 -6 -3 -13
-6 -8 -7 -18 -3 -22 4 -5 2 -5 -4 -2 -10 6 -40 -39 -36 -55 1 -5 -3 -8 -9 -8
-6 0 -8 -7 -5 -16 5 -14 4 -15 -9 -4 -13 11 -14 10 -10 -2 4 -9 0 -22 -7 -29
-7 -8 -13 -21 -13 -29 0 -8 -5 -14 -12 -13 -7 2 -10 -4 -7 -12 4 -8 1 -15 -7
-15 -7 0 -9 -3 -6 -7 4 -3 0 -11 -9 -17 -8 -6 -16 -22 -17 -34 -1 -16 -6 -21
-16 -17 -9 3 -12 3 -8 -1 4 -4 -1 -16 -10 -27 -10 -11 -12 -17 -5 -13 21 13
13 -12 -10 -28 -12 -9 -18 -16 -13 -16 6 0 2 -7 -8 -14 -11 -9 -14 -17 -8 -21
6 -3 -1 -17 -18 -34 -22 -22 -27 -31 -18 -40 9 -9 7 -10 -7 -5 -15 6 -18 4
-13 -9 4 -11 2 -14 -8 -10 -8 3 -12 10 -8 16 4 6 1 7 -8 1 -8 -4 -27 -7 -43
-5 -21 2 -26 -1 -21 -11 3 -7 0 -5 -8 5 -13 16 -15 16 -21 1 -6 -16 -8 -16
-25 0 -11 10 -22 13 -25 8 -3 -5 -15 -12 -26 -15 -11 -3 -18 -2 -15 3 3 4 -4
10 -15 13 -11 3 -18 1 -14 -4 3 -5 2 -9 -3 -10 -4 0 -16 -2 -26 -4 -9 -2 -15
0 -13 4 2 3 -7 11 -20 18 -13 6 -22 7 -18 2 5 -9 -9 -13 -35 -10 -8 2 -10 -2
-5 -11 6 -11 5 -11 -8 0 -14 11 -21 11 -40 1 -20 -11 -22 -11 -10 3 11 13 10
16 -5 14 -10 0 -24 -8 -31 -16 -8 -8 -11 -10 -8 -4 3 7 -6 11 -25 12 -16 0
-27 -3 -25 -7 3 -4 -2 -8 -10 -8 -9 0 -13 6 -9 15 4 12 2 12 -8 4 -8 -7 -17
-9 -20 -5 -9 9 -57 11 -51 2 2 -4 -3 -9 -11 -13 -8 -3 -17 0 -21 6 -4 7 -9 6
-15 -3 -7 -11 -9 -10 -9 4 0 13 -4 16 -17 9 -10 -4 -39 -7 -65 -6 -27 1 -46
-2 -43 -6 7 -11 -22 -7 -32 5 -4 4 -2 5 6 0 10 -6 12 -4 6 5 -6 10 -11 9 -21
-4 -7 -11 -13 -13 -16 -6 -2 7 -18 13 -35 14 -21 1 -29 -2 -26 -10 6 -15 -13
-13 -46 5 -22 12 -23 12 -17 -4 5 -15 4 -16 -8 -6 -10 9 -16 9 -21 1 -5 -8
-11 -8 -21 1 -8 6 -14 8 -14 3 0 -4 -5 -3 -11 3 -14 14 -41 5 -32 -11 3 -6 -3
-3 -14 6 -11 10 -24 18 -29 18 -5 0 -3 -4 4 -9 11 -7 11 -9 -2 -14 -9 -4 -16
-2 -16 4 0 6 -6 9 -12 6 -7 -2 -21 0 -32 5 -12 7 -16 7 -12 0 3 -6 2 -13 -4
-17 -5 -3 -10 -1 -10 5 0 6 -5 8 -12 3 -24 -14 -40 -12 -34 4 5 13 4 14 -9 3
-8 -7 -15 -9 -15 -5 0 4 -8 1 -17 -6 -10 -8 -14 -9 -10 -2 5 8 -2 11 -22 11
-19 -1 -28 -5 -24 -12 4 -6 -3 -3 -14 7 -13 11 -23 14 -27 8 -4 -6 -13 -8 -21
-4 -8 3 -23 2 -33 -2 -29 -13 -42 -14 -42 -3 0 6 -7 4 -17 -3 -9 -8 -14 -9
-10 -3 11 19 -19 24 -41 8 -15 -10 -23 -11 -28 -3 -4 8 -9 7 -15 -2 -7 -12 -9
-12 -9 0 0 10 -3 11 -14 2 -10 -8 -16 -9 -21 -1 -3 5 -11 10 -16 10 -6 0 -8
-4 -5 -8 4 -7 -33 -8 -41 -2 -9 7 -29 4 -35 -5 -5 -6 -8 -5 -8 4 0 11 -3 11
-15 1 -12 -10 -15 -10 -15 0 0 9 -4 9 -17 -1 -11 -10 -14 -10 -9 -1 8 13 -19
13 -41 -1 -6 -4 -14 -3 -18 3 -3 5 -11 10 -16 10 -6 0 -8 -4 -5 -8 3 -5 -1 -9
-9 -9 -8 0 -12 4 -9 9 7 11 -3 10 -26 -2 -13 -7 -21 -7 -25 0 -5 8 -11 7 -21
-1 -11 -9 -14 -8 -14 3 0 8 -6 15 -14 15 -8 0 -12 -5 -10 -12 3 -6 -6 -11 -18
-12 -18 -2 -20 0 -8 7 12 8 11 10 -5 7 -11 -1 -26 -6 -32 -10 -9 -6 -13 -2
-14 10 0 10 -3 13 -6 6 -2 -7 -9 -13 -14 -13 -6 0 -7 6 -3 13 4 6 -3 3 -16 -8
-14 -12 -20 -14 -15 -5 8 13 7 13 -8 1 -11 -9 -17 -10 -17 -2 0 6 -7 11 -16
11 -8 0 -12 -4 -9 -10 10 -16 -12 -12 -29 5 -9 9 -17 11 -21 5 -3 -5 -1 -10 5
-10 6 0 8 -5 4 -11 -5 -8 -10 -6 -16 5 -7 13 -13 14 -23 6 -9 -8 -15 -8 -20 0
-3 6 -10 8 -15 5 -12 -7 -29 26 -22 44 3 9 0 11 -8 6 -10 -6 -12 -2 -7 14 5
19 3 20 -11 9 -13 -11 -15 -11 -9 4 3 10 2 20 -4 23 -5 4 -7 10 -4 15 3 4 -2
11 -11 14 -9 3 -12 11 -8 18 5 8 2 9 -9 5 -12 -4 -14 -2 -10 10 4 11 3 14 -6
9 -14 -9 -11 16 4 26 6 4 0 8 -11 8 -24 0 -40 26 -21 34 7 2 3 5 -8 5 -17 1
-17 3 -5 11 12 8 12 10 -5 10 -17 0 -17 2 -5 10 13 8 12 10 -2 10 -10 0 -18 7
-18 16 0 8 -5 12 -11 9 -6 -4 -10 -1 -8 6 3 26 -1 40 -10 34 -5 -3 -13 0 -17
6 -4 7 -3 9 4 5 6 -3 13 -2 16 3 4 5 -3 12 -13 16 -13 4 -18 11 -14 22 4 11 2
14 -5 9 -11 -6 -17 5 -13 27 0 4 -7 7 -17 7 -14 0 -15 2 -2 10 10 6 11 10 3
10 -7 0 -13 7 -13 15 0 7 -7 18 -17 23 -11 6 -14 16 -9 28 4 10 4 15 0 12 -10
-11 -37 21 -30 37 3 8 0 17 -6 21 -7 5 -8 2 -3 -6 5 -9 4 -11 -3 -6 -7 4 -12
18 -12 30 0 15 -7 26 -20 29 -13 3 -18 11 -14 20 3 10 -3 20 -15 27 -11 6 -20
16 -18 23 1 7 -4 11 -11 9 -8 -1 -11 2 -7 8 3 6 12 7 18 3 7 -3 4 3 -6 14 -9
11 -14 24 -10 28 5 5 -1 3 -12 -5 -11 -8 -17 -11 -13 -6 8 9 -25 81 -42 91 -8
5 -7 12 2 23 10 12 10 14 1 8 -21 -12 -36 3 -21 22 10 12 10 14 1 8 -8 -4 -13
-1 -13 9 0 9 -4 14 -8 11 -4 -2 -14 5 -22 17 -11 19 -11 21 1 12 10 -7 10 -5
-1 5 -8 8 -14 24 -12 35 2 16 1 17 -7 5 -9 -13 -11 -12 -12 5 -1 11 -1 23 0
27 0 4 -6 5 -13 2 -11 -4 -13 0 -9 15 3 13 1 21 -6 21 -7 0 -9 5 -5 12 5 8 2
9 -11 4 -15 -5 -16 -4 -5 9 7 9 9 15 4 14 -21 -4 -26 2 -14 16 11 13 10 14 -5
9 -14 -6 -16 -3 -11 14 6 17 4 21 -8 16 -12 -4 -16 0 -16 16 0 13 -4 19 -11
14 -8 -4 -9 1 -4 16 4 14 3 20 -3 16 -5 -3 -18 4 -28 17 -10 12 -12 16 -4 10
20 -18 34 -16 16 2 -8 8 -21 15 -28 15 -10 0 -9 3 2 10 12 8 12 10 1 10 -8 0
-12 3 -8 6 3 4 -2 14 -11 23 -10 9 -13 13 -8 9 6 -5 15 -8 21 -8 5 0 -2 8 -18
18 -15 10 -24 22 -20 25 3 4 0 7 -8 7 -11 0 -11 2 1 10 11 7 11 10 2 10 -7 0
-10 5 -7 10 4 6 1 9 -7 8 -7 -2 -12 3 -10 10 1 6 -6 12 -15 12 -15 0 -16 2 -3
10 13 8 12 10 -3 10 -15 0 -16 3 -6 23 12 21 11 21 -6 7 -17 -14 -18 -13 -13
7 4 16 2 20 -10 16 -10 -4 -13 -2 -8 5 3 6 1 14 -5 17 -5 4 -8 13 -5 20 3 8
-3 17 -14 20 -10 3 -21 13 -24 22 -5 12 -4 13 7 5 10 -9 14 -8 14 3 0 8 -3 12
-7 10 -4 -2 -16 3 -26 11 -10 9 -13 13 -7 9 9 -4 11 -1 7 9 -3 9 -11 13 -18 9
-6 -4 -5 1 3 11 12 15 12 17 0 14 -8 -2 -17 -7 -20 -11 -3 -4 -6 6 -6 23 0 19
-8 38 -22 51 -13 12 -20 27 -16 36 5 14 3 14 -11 2 -16 -13 -16 -12 -7 6 13
24 -8 62 -28 49 -8 -5 -10 -3 -5 5 5 7 0 19 -10 27 -18 15 -18 15 1 9 20 -6
20 -6 0 13 -11 11 -24 17 -29 14 -5 -3 -6 1 -1 8 5 8 -1 20 -16 32 -13 11 -18
17 -11 13 6 -3 12 -1 12 4 0 6 -5 11 -11 11 -8 0 -7 6 2 17 10 11 10 14 2 9
-7 -4 -13 -3 -13 3 0 5 7 14 16 19 9 5 15 11 14 13 -1 2 4 18 11 34 7 17 11
37 10 45 -1 12 0 12 7 1 12 -16 27 3 16 21 -4 7 -3 8 4 4 8 -5 12 0 12 13 0
13 7 21 18 21 14 0 15 2 2 10 -14 9 -7 14 13 11 4 -1 7 4 5 11 -4 21 22 59 35
51 8 -4 8 -2 -1 9 -10 13 -10 18 -1 24 8 5 9 3 4 -6 -5 -9 -4 -11 3 -6 7 4 12
14 12 23 0 9 8 22 18 29 16 13 16 14 -3 8 -20 -7 -20 -7 0 9 11 8 24 13 28 10
5 -3 4 5 -3 17 -7 12 -8 20 -2 16 12 -7 24 22 15 37 -4 7 2 5 13 -3 10 -8 16
-10 12 -6 -4 5 0 14 9 21 13 9 13 14 3 20 -9 6 -11 4 -5 -5 5 -9 4 -11 -4 -6
-14 9 -5 26 15 26 8 0 14 5 14 11 0 5 -6 7 -12 4 -7 -4 -5 0 5 8 9 8 17 20 17
26 0 7 4 10 8 7 4 -2 9 5 9 17 1 12 10 28 20 35 10 7 17 18 15 23 -1 5 4 12
12 15 8 3 12 12 10 19 -3 7 4 19 15 27 12 8 18 17 15 21 -3 3 9 27 27 53 17
26 26 43 18 39 -11 -7 -12 -6 -2 7 7 8 9 19 5 24 -4 4 1 3 10 -4 14 -11 16
-10 14 12 -2 19 1 23 13 18 14 -5 14 -4 1 13 -8 10 -10 16 -3 12 7 -4 16 5 25
23 7 17 18 28 25 26 9 -4 10 1 3 19 -7 19 -6 23 4 19 8 -3 17 0 22 7 4 8 3 10
-4 5 -7 -4 -12 -2 -12 4 0 6 7 13 15 16 8 4 13 10 10 14 -3 4 3 11 12 14 15 6
15 8 3 16 -12 8 -12 10 4 10 15 0 16 3 6 15 -11 13 -10 14 4 9 11 -4 16 -2 14
7 -2 9 4 13 17 11 16 -2 17 -1 5 7 -12 8 -11 13 5 32 11 12 14 19 8 15 -9 -5
-11 -2 -7 8 3 9 11 13 17 9 6 -4 8 0 4 10 -4 12 -2 14 11 10 9 -3 14 -3 10 2
-4 4 -2 15 5 23 9 13 9 14 0 8 -9 -5 -11 -2 -7 8 3 9 11 14 17 13 7 -1 11 6
11 16 -1 10 5 17 15 17 14 0 14 2 1 10 -12 8 -11 11 8 16 17 5 20 9 11 15 -10
6 -7 11 11 18 14 5 19 10 12 10 -7 1 -10 6 -7 11 4 6 12 7 18 3 7 -4 6 0 -2
10 -9 11 -10 17 -2 17 6 0 11 7 11 16 0 9 5 12 12 8 7 -5 9 -2 5 8 -3 10 4 25
19 39 13 13 23 28 21 33 -2 6 5 16 17 23 12 7 15 12 8 13 -10 0 -9 4 2 16 9 8
14 20 11 25 -4 5 1 9 10 9 9 0 13 5 10 10 -3 6 -1 10 5 10 7 0 9 7 6 16 -3 8
-2 13 3 10 5 -3 12 1 15 10 3 8 2 13 -2 10 -5 -3 -9 1 -9 9 0 8 3 14 6 13 18
-2 33 3 28 9 -4 3 1 12 11 20 9 8 10 11 3 7 -9 -4 -6 6 8 24 12 18 19 32 14
32 -4 0 0 5 9 11 10 5 15 16 11 25 -3 9 0 14 8 12 8 -2 13 3 12 10 -2 6 2 12
8 12 5 0 8 4 5 9 -3 5 1 11 9 15 8 3 12 12 9 21 -4 8 0 17 9 21 9 3 13 12 10
21 -4 9 -2 14 3 10 6 -3 16 3 23 15 10 16 10 19 -1 13 -7 -3 -5 0 5 8 9 8 15
21 11 30 -3 8 -1 18 5 22 7 4 8 -1 4 -12 -4 -13 0 -12 18 7 13 13 23 29 21 35
-2 5 7 1 19 -10 12 -11 19 -15 16 -9z m2283 -12 c0 -3 -7 -1 -15 6 -8 7 -15
17 -15 22 0 5 7 3 15 -6 8 -8 15 -18 15 -22z m-3385 -2174 c3 -5 1 -10 -4 -10
-6 0 -11 5 -11 10 0 6 2 10 4 10 3 0 8 -4 11 -10z"/>
<path d="M4115 5449 c-3 -4 2 -6 10 -5 21 3 28 13 10 13 -9 0 -18 -4 -20 -8z"/>
<path d="M4356 5452 c-3 -5 1 -9 9 -9 8 0 12 4 9 9 -3 4 -7 8 -9 8 -2 0 -6 -4
-9 -8z"/>
<path d="M1985 4861 c-3 -5 -2 -12 3 -15 5 -3 9 1 9 9 0 17 -3 19 -12 6z"/>
<path d="M5557 3849 c7 -7 15 -10 18 -7 3 3 -2 9 -12 12 -14 6 -15 5 -6 -5z"/>
<path d="M6139 2063 c-13 -16 -12 -17 4 -4 16 13 21 21 13 21 -2 0 -10 -8 -17
-17z"/>
<path d="M1450 956 c0 -2 8 -10 18 -17 15 -13 16 -12 3 4 -13 16 -21 21 -21
13z"/>
<path d="M5349 793 c-13 -16 -12 -17 4 -4 16 13 21 21 13 21 -2 0 -10 -8 -17
-17z"/>
</g>
</svg>
